<?xml version="1.0" encoding="UTF-8" standalone="no"?>
<svg width="542px" height="289px" viewBox="0 0 542 289" version="1.1" xmlns="http://www.w3.org/2000/svg" xmlns:xlink="http://www.w3.org/1999/xlink">
    <!-- Generator: Sketch 49.3 (51167) - http://www.bohemiancoding.com/sketch -->
    <title>Group</title>
    <desc>Created with Sketch.</desc>
    <defs></defs>
    <g id="Page-1" stroke="none" stroke-width="1" fill="none" fill-rule="evenodd">
        <g id="Group">
            <path d="M177.9517,-5.68434189e-14 C195.1739,-5.68434189e-14 209.139,13.9663 209.139,31.1873 C209.139,48.4083 195.1739,62.3749 177.9517,62.3749 C160.7306,62.3749 146.7652,48.4083 146.7652,31.1873 C146.7652,13.9663 160.7306,-5.68434189e-14 177.9517,-5.68434189e-14" id="Fill-1" fill="#DC2B1C"></path>
            <path d="M204.698,47.2317 C204.5409,47.493 204.3814,47.7527 204.2167,48.0086 L203.0791,47.495 L203.4388,46.6636 L204.698,47.2317 Z M161.9107,4.4396 C162.1715,4.2825 162.4351,4.1303 162.7007,3.9809 L162.9128,4.473 L162.0882,4.8509 L161.9107,4.4396 Z M200.5194,46.2665 L200.9129,45.4498 L202.3466,46.1698 L202.5816,46.2764 L202.2219,47.1078 L201.9532,46.9865 L200.5194,46.2665 Z M198.0102,44.939 L198.4365,44.1396 L199.7274,44.8548 L200.0727,45.028 L199.6792,45.8447 L199.3011,45.6545 L198.0102,44.939 Z M195.5537,43.5186 L196.0115,42.7362 L197.1306,43.4162 L197.6142,43.6841 L197.1879,44.4838 L196.6731,44.1983 L195.5537,43.5186 Z M193.1513,42.008 L193.6397,41.2446 L194.5619,41.856 L195.2082,42.2484 L194.7504,43.0304 L194.0734,42.6194 L193.1513,42.008 Z M190.8057,40.4126 L191.3238,39.668 L192.0257,40.174 L192.8565,40.7253 L192.3684,41.4887 L191.5078,40.9186 L190.8057,40.4126 Z M188.5181,38.7348 L189.0646,38.0114 L189.5267,38.3728 L190.5616,39.1186 L190.0434,39.8633 L188.9802,39.0962 L188.5181,38.7348 Z M186.2904,36.9796 L186.8641,36.2772 L187.0705,36.4521 L188.3242,37.4326 L187.778,38.156 L186.4967,37.1542 L186.2904,36.9796 Z M184.138,35.1592 L184.7117,34.4568 L186.1469,35.6706 L185.5732,36.373 L184.138,35.1592 Z M182.0421,33.2486 L182.6425,32.5683 L184.0294,33.836 L183.4291,34.5166 L182.0421,33.2486 Z M180.0111,31.2695 L180.6367,30.6127 L181.9738,31.9331 L181.3484,32.5899 L180.0111,31.2695 Z M178.0458,29.2263 L178.6955,28.5936 L179.981,29.9636 L179.3313,30.5963 L178.0458,29.2263 Z M176.1466,27.1207 L176.8198,26.5135 L177.7694,27.6063 L178.0529,27.9082 L177.4032,28.5406 L177.0962,28.2137 L176.1466,27.1207 Z M174.9044,25.6912 L175.6003,25.1095 L176.2038,25.804 L175.5306,26.4115 L174.9044,25.6912 Z M174.314,24.957 L175.0102,24.3756 L175.6003,25.1095 L174.9044,25.6912 L174.314,24.957 Z M172.5506,22.7369 L173.2677,22.1822 L173.5277,22.5317 L174.4214,23.6435 L173.7255,24.2251 L172.8105,23.0867 L172.5506,22.7369 Z M170.8702,20.474 L171.5873,19.9193 L172.7076,21.4282 L171.9904,21.9829 L170.8702,20.474 Z M169.2655,18.136 L170.0031,17.6085 L171.0652,19.1585 L170.3276,19.686 L169.2655,18.136 Z M167.7385,15.7467 L168.4956,15.2472 L169.4971,16.8372 L168.7399,17.3366 L167.7385,15.7467 Z M166.2911,13.3083 L167.0669,12.8381 L168.0069,14.4652 L167.2308,14.9354 L166.2911,13.3083 Z M164.9268,10.8221 L165.7199,10.3816 L166.4722,11.8085 L166.5967,12.0242 L165.8208,12.4945 L165.6788,12.249 L164.9268,10.8221 Z M163.6492,8.2896 L164.4582,7.8803 L165.0178,9.0507 L165.282,9.5502 L164.4888,9.9907 L164.2088,9.4597 L163.6492,8.2896 Z M162.4606,5.714 L163.2852,5.3362 L163.6883,6.2716 L164.0526,7.0327 L163.2436,7.4417 L162.8637,6.6495 L162.4606,5.714 Z" id="Fill-2" fill="#FEFEFE"></path>
            <path d="M203.438,49.1629 C203.2597,49.4149 203.0777,49.6644 202.8926,49.9107 L201.6096,49.3316 L201.9696,48.4999 L203.438,49.1629 Z M160.1461,5.5839 C160.4004,5.4062 160.6575,5.233 160.9172,5.0635 L161.0135,5.3138 L161.4433,6.3096 L160.6187,6.6875 L160.1751,5.6593 L160.1461,5.5839 Z M199.05,48.1033 L199.4434,47.2867 L200.8772,48.0067 L201.1124,48.1132 L200.7527,48.9446 L200.4837,48.8233 L199.05,48.1033 Z M196.5404,46.7759 L196.9668,45.9765 L198.2582,46.6917 L198.6032,46.8646 L198.2095,47.6812 L197.8319,47.4913 L196.5404,46.7759 Z M194.0839,45.3554 L194.5417,44.5731 L195.6614,45.2531 L196.1447,45.521 L195.7184,46.3206 L195.2036,46.0352 L194.0839,45.3554 Z M191.6821,43.8446 L192.1703,43.0812 L193.0927,43.6926 L193.7384,44.0852 L193.2806,44.8673 L192.6043,44.456 L191.6821,43.8446 Z M189.3365,42.2486 L189.8546,41.5048 L190.5565,42.0108 L191.3871,42.5619 L190.8986,43.3252 L190.0383,42.7546 L189.3365,42.2486 Z M187.0489,40.5714 L187.5954,39.848 L188.0578,40.2091 L189.0924,40.9555 L188.5742,41.6993 L187.5115,40.9328 L187.0489,40.5714 Z M184.8209,38.8159 L185.3949,38.1137 L185.6013,38.2886 L186.855,39.2692 L186.3088,39.9926 L185.0275,38.9908 L184.8209,38.8159 Z M182.6688,36.9952 L183.2426,36.2931 L184.6774,37.5071 L184.1037,38.2093 L182.6688,36.9952 Z M180.5732,35.0846 L181.1735,34.4043 L182.5603,35.6726 L181.9599,36.3529 L180.5732,35.0846 Z M178.5419,33.1061 L179.1675,32.4493 L180.5046,33.7691 L179.8792,34.4259 L178.5419,33.1061 Z M176.5769,31.0623 L177.2266,30.4296 L178.5121,31.8001 L177.8624,32.4328 L176.5769,31.0623 Z M174.6774,28.957 L175.3506,28.3495 L176.3002,29.4426 L176.5837,29.7447 L175.9337,30.3772 L175.627,30.05 L174.6774,28.957 Z M173.435,27.5272 L174.1311,26.9455 L174.7346,27.6406 L174.0614,28.248 L173.435,27.5272 Z M172.8448,26.7933 L173.541,26.2116 L174.1311,26.9455 L173.435,27.5272 L172.8448,26.7933 Z M171.0816,24.5732 L171.7988,24.0182 L172.0582,24.3677 L172.9522,25.4795 L172.2563,26.0611 L171.341,24.9227 L171.0816,24.5732 Z M169.4007,22.3106 L170.1179,21.7556 L171.239,23.2642 L170.5215,23.8192 L169.4007,22.3106 Z M167.7963,19.972 L168.5339,19.4448 L169.596,20.995 L168.8584,21.5226 L167.7963,19.972 Z M166.269,17.583 L167.0264,17.0838 L168.0279,18.6737 L167.2707,19.1729 L166.269,17.583 Z M164.8213,15.1446 L165.5974,14.6743 L166.5374,16.3014 L165.7616,16.772 L164.8213,15.1446 Z M163.4573,12.6583 L164.2504,12.2178 L165.0027,13.6454 L165.1275,13.8608 L164.3516,14.3311 L164.2096,14.0859 L163.4573,12.6583 Z M162.1791,10.1264 L162.9882,9.7171 L163.548,10.8875 L163.8119,11.3867 L163.0188,11.8272 L162.7393,11.2966 L162.1791,10.1264 Z M160.9909,7.5503 L161.8155,7.1725 L162.2188,8.1085 L162.5825,8.8696 L161.7735,9.2786 L161.3942,8.4863 L160.9909,7.5503 Z" id="Fill-3" fill="#FEFEFE"></path>
            <path d="M201.181689,51.9910251 C190.389046,47.4702269 179.904127,39.8409053 171.211122,29.4409724 C165.398396,22.4866602 160.947547,14.9619763 157.877228,7.32367289" id="Stroke-4" stroke="#FEFEFE" stroke-width="0.6562" stroke-linecap="round" stroke-linejoin="round"></path>
            <path d="M198.6908,54.4753 C198.4425,54.6967 198.1908,54.9147 197.9354,55.1281 L196.9747,54.6944 L197.3344,53.8628 L198.6908,54.4753 Z M194.4147,53.4662 L194.8082,52.6495 L196.2422,53.3692 L196.4775,53.4755 L196.1175,54.3072 L195.8488,54.1862 L194.4147,53.4662 Z M191.9055,52.1396 L192.3318,51.3394 L193.6233,52.0545 L193.968,52.2277 L193.5746,53.0444 L193.1967,52.8548 L191.9055,52.1396 Z M189.449,50.718 L189.9068,49.9359 L191.0265,50.6162 L191.5092,50.8835 L191.0829,51.6838 L190.5687,51.3986 L189.449,50.718 Z M187.0469,49.2077 L187.5353,48.4443 L188.4574,49.0558 L189.1035,49.4481 L188.6457,50.2302 L187.9693,49.8191 L187.0469,49.2077 Z M184.7015,47.6115 L185.2197,46.8677 L185.9216,47.374 L186.7518,47.925 L186.2637,48.6884 L185.4034,48.1178 L184.7015,47.6115 Z M182.414,45.9343 L182.9602,45.2106 L183.4228,45.572 L184.4572,46.3183 L183.9393,47.0622 L182.8763,46.2954 L182.414,45.9343 Z M180.1857,44.1793 L180.7594,43.4769 L180.9663,43.6518 L182.2201,44.6317 L181.6736,45.3554 L180.3926,44.3539 L180.1857,44.1793 Z M178.0336,42.3581 L178.6073,41.6556 L180.0422,42.87 L179.4685,43.5721 L178.0336,42.3581 Z M175.9377,40.4472 L176.538,39.7675 L177.925,41.0357 L177.3247,41.7155 L175.9377,40.4472 Z M173.9069,38.4689 L174.5323,37.8119 L175.8696,39.132 L175.244,39.7887 L173.9069,38.4689 Z M171.9414,36.4252 L172.5914,35.7925 L173.8772,37.163 L173.2275,37.7954 L171.9414,36.4252 Z M170.0425,34.3196 L170.7157,33.7124 L171.6656,34.8057 L171.9485,35.1073 L171.2988,35.74 L170.9923,35.4132 L170.0425,34.3196 Z M168.8003,32.8901 L169.4965,32.3084 L170.0994,33.0029 L169.4262,33.6103 L168.8003,32.8901 Z M168.2101,32.1559 L168.9063,31.5745 L169.4965,32.3084 L168.8003,32.8901 L168.2101,32.1559 Z M166.4467,29.9358 L167.1639,29.3811 L167.4235,29.7306 L168.3176,30.8423 L167.6217,31.424 L166.7064,30.2856 L166.4467,29.9358 Z M164.7658,27.6729 L165.4829,27.1182 L166.6037,28.627 L165.8866,29.1818 L164.7658,27.6729 Z M163.1616,25.3349 L163.8992,24.8074 L164.9614,26.3573 L164.2238,26.8849 L163.1616,25.3349 Z M161.634,22.9456 L162.3912,22.4461 L163.3932,24.036 L162.6361,24.5355 L161.634,22.9456 Z M160.1867,20.5072 L160.9628,20.0369 L161.9025,21.664 L161.1266,22.1343 L160.1867,20.5072 Z M158.8226,18.0209 L159.6158,17.5804 L160.3681,19.0077 L160.4928,19.2231 L159.717,19.6934 L159.575,19.4482 L158.8226,18.0209 Z M157.5445,15.4887 L158.3535,15.0797 L158.9139,16.2501 L159.1775,16.749 L158.3844,17.1895 L158.1049,16.6595 L157.5445,15.4887 Z M156.3562,12.9129 L157.1808,12.535 L157.5842,13.4713 L157.9479,14.2319 L157.1389,14.6412 L156.7596,13.8489 L156.3562,12.9129 Z M155.2609,10.2957 L156.0997,9.9501 L156.3795,10.6766 L156.8089,11.6719 L155.9843,12.0497 L155.5407,11.0222 L155.2609,10.2957 Z" id="Fill-5" fill="#FEFEFE"></path>
            <path d="M196.7267,56.0891 C196.4494,56.2986 196.1691,56.5035 195.8845,56.7034 L195.5055,56.5321 L195.8652,55.7005 L196.7267,56.0891 Z M154.2416,10.9318 L154.2818,10.8844 L154.292,10.9111 L154.2416,10.9318 Z M192.9458,55.3033 L193.3396,54.4867 L194.773,55.2067 L195.008,55.3132 L194.6483,56.1449 L194.3796,56.0233 L192.9458,55.3033 Z M190.4366,53.9761 L190.8629,53.1765 L192.1538,53.8917 L192.4991,54.0649 L192.1056,54.8818 L191.7275,54.6913 L190.4366,53.9761 Z M187.9801,52.5554 L188.4379,51.7731 L189.5573,52.4531 L190.0409,52.7212 L189.6143,53.5206 L189.0995,53.2355 L187.9801,52.5554 Z M185.5783,51.0446 L186.0664,50.2812 L186.9883,50.8926 L187.6346,51.2852 L187.1768,52.0676 L186.4998,51.656 L185.5783,51.0446 Z M183.2323,49.4486 L183.7502,48.7048 L184.4524,49.2108 L185.2832,49.7619 L184.7948,50.5252 L183.9342,49.9546 L183.2323,49.4486 Z M180.9451,47.7714 L181.4913,47.048 L181.9534,47.4094 L182.988,48.1555 L182.4701,48.8993 L181.4071,48.1328 L180.9451,47.7714 Z M178.7168,46.0165 L179.2905,45.314 L179.4971,45.4889 L180.7512,46.4694 L180.2047,47.1928 L178.9234,46.1914 L178.7168,46.0165 Z M176.5647,44.1958 L177.1384,43.4933 L178.5733,44.7074 L177.9996,45.4098 L176.5647,44.1958 Z M174.4688,42.2846 L175.0694,41.6052 L176.4561,42.8731 L175.8557,43.5526 L174.4688,42.2846 Z M172.438,40.3061 L173.0636,39.6493 L174.4007,40.9697 L173.7751,41.6264 L172.438,40.3061 Z M170.4728,38.2626 L171.1225,37.6302 L172.408,39.0001 L171.758,39.6328 L170.4728,38.2626 Z M168.5735,36.1573 L169.2468,35.5498 L170.1961,36.6426 L170.4798,36.9447 L169.8299,37.5772 L169.5226,37.25 L168.5735,36.1573 Z M167.3308,34.7272 L168.0267,34.1458 L168.6308,34.8406 L167.9573,35.448 L167.3308,34.7272 Z M166.7409,33.9936 L167.4369,33.4122 L168.0267,34.1458 L167.3308,34.7272 L166.7409,33.9936 Z M164.9775,31.7735 L165.6947,31.2185 L165.954,31.5677 L166.8484,32.68 L166.1522,33.2617 L165.2369,32.1227 L164.9775,31.7735 Z M163.2966,29.5106 L164.0137,28.9559 L165.1346,30.4645 L164.4174,31.0195 L163.2966,29.5106 Z M161.6924,27.1726 L162.43,26.6451 L163.4922,28.195 L162.7546,28.7226 L161.6924,27.1726 Z M160.1649,24.7835 L160.922,24.2844 L161.9237,25.8737 L161.1666,26.3732 L160.1649,24.7835 Z M158.7175,22.3446 L159.4936,21.8743 L160.4333,23.502 L159.6572,23.9723 L158.7175,22.3446 Z M157.3529,19.8583 L158.146,19.4178 L158.8986,20.8448 L159.0236,21.0608 L158.2475,21.5311 L158.1055,21.2853 L157.3529,19.8583 Z M156.0753,17.3264 L156.8843,16.9171 L157.4439,18.0875 L157.7081,18.5867 L156.9146,19.0272 L156.6349,18.4966 L156.0753,17.3264 Z M154.8867,14.7509 L155.7113,14.373 L156.1144,15.3085 L156.4787,16.0696 L155.6697,16.4786 L155.2898,15.6863 L154.8867,14.7509 Z M153.7911,12.1337 L154.6299,11.7881 L154.9094,12.5138 L155.3389,13.5102 L154.5143,13.8877 L154.0706,12.8596 L153.7911,12.1337 Z" id="Fill-6" fill="#FEFEFE"></path>
            <path d="M132.8499,61.3423 C65.7771,94.5856 22.3778,126.4682 33.0094,179.5901 C43.6411,232.7119 155.6263,270.5465 242.6825,268.5234 C141.6087,277.9611 14.4125,236.556 2.0299,174.6861 C-10.3533,112.8172 43.1436,61.6322 126.2237,28.2327 L132.8499,61.3423 Z" id="Fill-7" fill="#009933"></path>
            <path d="M172.1265,262.4785 C188.574,266.0195 205.4358,268.4843 221.963,269.7397 C196.6496,270.405 170.3534,268.1807 145.1021,263.4981 C78.0423,249.0789 20.6257,217.3257 12.5116,176.7832 C0.5975,117.2522 49.6806,67.617 127.4173,34.1971 L132.8499,61.3423 C65.7771,94.5856 22.3778,126.4682 33.0094,179.5901 C40.8838,218.9355 104.3609,249.889 172.1265,262.4785" id="Fill-8" fill="#FEFEFE"></path>
            <path d="M54.0955,212.7897 C68.0145,231.7155 94.7421,247.8115 126.8014,259.626 C85.2877,249.7481 48.1694,233.1977 25.2074,212.0726 C19.3147,204.2648 15.3017,195.9669 13.5601,187.2646 C1.5956,127.4873 51.1342,77.6863 129.4316,44.2618 L132.8499,61.3423 C65.7771,94.5856 22.3778,126.4682 33.0094,179.5901 C35.3974,191.5219 42.9117,202.6791 54.0955,212.7897" id="Fill-9" fill="#009933"></path>
            <path d="M47.5169,206.2474 C53.1865,221.6236 67.3177,235.5579 86.6058,247.407 C57.2956,236.3263 32.7076,221.5887 17.5195,204.2033 C16.2502,201.0614 15.2606,197.8613 14.6081,194.6015 C2.6243,134.7258 52.3443,84.8579 130.8665,51.4326 L132.8499,61.3423 C65.7771,94.5856 22.3778,126.4682 33.0094,179.5901 C34.8934,189.0025 39.9716,197.9316 47.5169,206.2474" id="Fill-10" fill="#FEFEFE"></path>
            <path d="M54.3328,213.0029 C59.5049,225.2111 70.0007,236.4757 84.1351,246.4642 C60.1123,237.1277 39.4152,225.3072 24.6827,211.5756 C22.8121,207.5524 21.4135,203.428 20.5682,199.2041 C8.822,140.5165 56.3593,91.4451 132.1903,58.0458 L132.8499,61.3423 C65.7771,94.5856 22.3778,126.4682 33.0094,179.5901 C35.4141,191.6058 43.0183,202.8359 54.3328,213.0029" id="Fill-11" fill="#009933"></path>
            <path d="M134.01306,61.5347637 C66.9403059,94.7780402 23.5408171,126.660611 34.1724884,179.782744 C44.8040213,232.904601 156.789465,270.738912 243.845735,268.715964 C142.771791,278.153804 15.5753935,236.748782 3.19286097,174.878425 C-9.19008636,113.009727 44.3067181,61.8248227 127.386774,28.4251798 L134.01306,61.5347637 Z" id="Stroke-12" stroke="#CCCCCC" stroke-width="2.0503"></path>
            <path d="M406.9125,236.753 C473.9854,203.5108 517.3863,171.6267 506.7533,118.5049 C496.1228,65.383 384.1364,27.5485 297.0802,29.571 C398.154,20.1339 525.3514,61.5381 537.7334,123.4088 C550.1169,185.2778 496.6194,236.463 413.5391,269.8619 L406.9125,236.753 Z" id="Fill-13" fill="#009933"></path>
            <path d="M367.6462,35.6184 C351.1945,32.076 334.3283,29.6098 317.7969,28.3549 C343.1123,27.6896 369.411,29.9143 394.664,34.5971 C461.7227,49.0169 519.137,80.7703 527.2509,121.3129 C539.1663,180.843 490.0833,230.4779 412.3457,263.8984 L406.9125,236.753 C473.9854,203.5108 517.3863,171.6267 506.7533,118.5049 C498.8798,79.1614 435.4087,48.2091 367.6462,35.6184" id="Fill-14" fill="#FEFEFE"></path>
            <path d="M485.6695,85.3066 C471.7502,66.3797 445.0218,50.2835 412.9605,38.4684 C454.4736,48.346 491.5919,64.896 514.5545,86.0212 C520.4475,93.8296 524.4613,102.1271 526.2029,110.8303 C538.1677,170.6074 488.6297,220.4087 410.3308,253.8326 L406.9125,236.753 C473.9854,203.5108 517.3863,171.6267 506.7533,118.5049 C504.3657,106.5738 496.8522,95.417 485.6695,85.3066" id="Fill-15" fill="#009933"></path>
            <path d="M492.2456,91.8473 C486.5757,76.4702 472.4439,62.5365 453.1541,50.6863 C482.4655,61.7672 507.054,76.5045 522.2432,93.8905 C523.5129,97.033 524.5024,100.2327 525.155,103.4932 C537.1381,163.3688 487.4179,213.2373 408.8957,246.6623 L406.9125,236.753 C473.9854,203.5108 517.3863,171.6267 506.7533,118.5049 C504.8697,109.0924 499.7911,100.163 492.2456,91.8473" id="Fill-16" fill="#FEFEFE"></path>
            <path d="M485.4319,85.0935 C480.2604,72.8849 469.7646,61.62 455.6302,51.6316 C479.6524,60.9675 500.3487,72.7883 515.0806,86.519 C516.9512,90.5422 518.3495,94.6669 519.1948,98.8905 C530.9413,157.5788 483.404,206.6499 407.5722,240.0485 L406.9125,236.753 C473.9854,203.5108 517.3863,171.6267 506.7533,118.5049 C504.3489,106.4894 496.7459,95.2602 485.4319,85.0935" id="Fill-17" fill="#009933"></path>
            <path d="M407.754918,236.024878 C474.828087,202.782846 518.229097,170.898616 507.595905,117.776483 C496.965478,64.6547643 384.978928,26.819901 297.922658,28.8425717 C398.996602,19.4054236 526.194106,60.8097545 538.575947,122.680388 C550.959724,184.5495 497.46209,235.734819 414.381619,269.133771 L407.754918,236.024878 Z" id="Stroke-18" stroke="#CCCCCC" stroke-width="2.0503"></path>
            <path d="M357.611,288.8708 C340.3899,288.8708 326.4236,274.9047 326.4236,257.6834 C326.4236,240.4624 340.3899,226.4958 357.611,226.4958 C374.8334,226.4958 388.7986,240.4624 388.7986,257.6834 C388.7986,274.9047 374.8334,288.8708 357.611,288.8708" id="Fill-19" fill="#DC2B1C"></path>
            <path d="M330.8649,241.639 C331.0223,241.3777 331.1816,241.118 331.3463,240.8621 L332.4838,241.3757 L332.1241,242.2071 L330.8649,241.639 Z M373.6522,284.4311 C373.3917,284.5879 373.1284,284.7404 372.8625,284.8898 L372.6502,284.3977 L373.4748,284.0198 L373.6522,284.4311 Z M335.0435,242.6042 L334.65,243.4209 L333.2163,242.7009 L332.9813,242.5943 L333.341,241.7629 L333.61,241.8842 L335.0435,242.6042 Z M337.5527,243.9317 L337.1264,244.7311 L335.8355,244.0159 L335.4902,243.8427 L335.8837,243.026 L336.2618,243.2162 L337.5527,243.9317 Z M340.0092,245.3521 L339.5514,246.1345 L338.4323,245.4545 L337.9487,245.1863 L338.3751,244.3869 L338.8901,244.6724 L340.0092,245.3521 Z M342.4113,246.8627 L341.9229,247.6261 L341.0011,247.0149 L340.3551,246.6223 L340.8126,245.8403 L341.4895,246.2516 L342.4113,246.8627 Z M344.7573,248.4583 L344.2391,249.203 L343.5372,248.697 L342.7064,248.1454 L343.1945,247.382 L344.0554,247.9526 L344.7573,248.4583 Z M347.0443,250.1359 L346.498,250.8593 L346.0363,250.4984 L345.0013,249.7526 L345.5195,249.008 L346.5828,249.7748 L347.0443,250.1359 Z M349.2726,251.8911 L348.6988,252.5935 L348.4925,252.4189 L347.2384,251.4381 L347.7847,250.7147 L349.0662,251.7168 L349.2726,251.8911 Z M351.4246,253.7118 L350.8509,254.4142 L349.416,253.2001 L349.9897,252.4977 L351.4246,253.7118 Z M353.5206,255.6223 L352.9202,256.3027 L351.5332,255.035 L352.1336,254.3547 L353.5206,255.6223 Z M355.5513,257.6015 L354.926,258.2583 L353.5886,256.9382 L354.2142,256.2811 L355.5513,257.6015 Z M357.5171,259.645 L356.8674,260.2774 L355.5816,258.9074 L356.2313,258.2747 L357.5171,259.645 Z M359.4163,261.7503 L358.7431,262.3577 L357.7938,261.265 L357.51,260.9625 L358.1597,260.3301 L358.467,260.6575 L359.4163,261.7503 Z M360.6591,263.1806 L359.9631,263.7623 L359.3591,263.067 L360.0323,262.4595 L360.6591,263.1806 Z M361.2484,263.914 L360.5525,264.4956 L359.9631,263.7623 L360.6591,263.1806 L361.2484,263.914 Z M363.0121,266.1341 L362.2949,266.6891 L362.0358,266.3401 L361.1412,265.2275 L361.8371,264.6462 L362.753,265.7854 L363.0121,266.1341 Z M364.693,268.397 L363.9756,268.952 L362.8548,267.4431 L363.5719,266.8881 L364.693,268.397 Z M366.2969,270.735 L365.5593,271.2625 L364.4974,269.7125 L365.235,269.185 L366.2969,270.735 Z M367.8245,273.124 L367.0673,273.6235 L366.0653,272.0338 L366.8224,271.5346 L367.8245,273.124 Z M369.2718,275.5624 L368.496,276.0326 L367.556,274.4056 L368.3322,273.9353 L369.2718,275.5624 Z M370.6364,278.0492 L369.8433,278.4897 L369.0913,277.063 L368.9663,276.8468 L369.7421,276.3765 L369.8844,276.6225 L370.6364,278.0492 Z M371.914,280.5811 L371.1053,280.9904 L370.5457,279.8209 L370.2815,279.3208 L371.0747,278.8803 L371.3545,279.4118 L371.914,280.5811 Z M373.1029,283.1567 L372.2783,283.5345 L371.8749,282.5994 L371.5109,281.838 L372.3197,281.429 L372.6995,282.2218 L373.1029,283.1567 Z" id="Fill-20" fill="#FEFEFE"></path>
            <path d="M332.1249,239.7081 C332.3032,239.4561 332.4847,239.2069 332.67,238.9603 L333.9536,239.5394 L333.5939,240.3711 L332.1249,239.7081 Z M375.4171,283.2874 C375.1625,283.4648 374.9054,283.6386 374.6458,283.8081 L374.5494,283.5572 L374.1197,282.5614 L374.9443,282.1838 L375.3879,283.2117 L375.4171,283.2874 Z M336.513,240.7677 L336.1195,241.5843 L334.6858,240.8646 L334.4508,240.7583 L334.8108,239.9266 L335.0792,240.048 L336.513,240.7677 Z M339.0225,242.0954 L338.5962,242.8951 L337.3044,242.1793 L336.96,242.0064 L337.3534,241.1897 L337.7307,241.38 L339.0225,242.0954 Z M341.479,243.5161 L341.0212,244.2985 L339.9012,243.6182 L339.4182,243.3503 L339.8445,242.5509 L340.3587,242.8358 L341.479,243.5161 Z M343.8808,245.0264 L343.3927,245.7901 L342.47,245.1781 L341.8245,244.7863 L342.2823,244.004 L342.9584,244.4147 L343.8808,245.0264 Z M346.2267,246.6221 L345.7089,247.3667 L345.0061,246.8602 L344.1759,246.3091 L344.6643,245.5457 L345.524,246.1158 L346.2267,246.6221 Z M348.5143,248.2996 L347.9681,249.0233 L347.5052,248.6616 L346.4711,247.9161 L346.989,247.1714 L348.0514,247.9379 L348.5143,248.2996 Z M350.7423,250.0551 L350.1686,250.7572 L349.9614,250.5821 L348.7085,249.6021 L349.2547,248.8784 L350.5351,249.8799 L350.7423,250.0551 Z M352.8944,251.8758 L352.3207,252.5782 L350.8858,251.3641 L351.4595,250.6617 L352.8944,251.8758 Z M354.99,253.7863 L354.3897,254.4667 L353.003,253.199 L353.6033,252.5187 L354.99,253.7863 Z M357.0211,255.7655 L356.3955,256.4223 L355.0584,255.1019 L355.684,254.4451 L357.0211,255.7655 Z M358.9863,257.809 L358.3366,258.4414 L357.0511,257.0714 L357.7011,256.4387 L358.9863,257.809 Z M360.8855,259.9143 L360.2123,260.5217 L359.2624,259.4281 L358.9792,259.1268 L359.6292,258.4944 L359.9357,258.8207 L360.8855,259.9143 Z M362.1274,261.3435 L361.4315,261.9249 L360.8283,261.231 L361.5015,260.6235 L362.1274,261.3435 Z M362.7181,262.078 L362.022,262.6594 L361.4315,261.9249 L362.1274,261.3435 L362.7181,262.078 Z M364.4816,264.2981 L363.7644,264.8531 L363.5042,264.503 L362.6107,263.3915 L363.3066,262.8099 L364.2214,263.948 L364.4816,264.2981 Z M366.1622,266.561 L365.4451,267.1157 L364.3245,265.6071 L365.0417,265.0521 L366.1622,266.561 Z M367.7666,268.8993 L367.0291,269.4268 L365.9669,267.8765 L366.7045,267.349 L367.7666,268.8993 Z M369.294,271.2883 L368.5368,271.7878 L367.5351,270.1978 L368.2922,269.6983 L369.294,271.2883 Z M370.7416,273.7269 L369.9655,274.1972 L369.0255,272.5698 L369.8014,272.0996 L370.7416,273.7269 Z M372.1056,276.2129 L371.3125,276.6534 L370.5602,275.2259 L370.4357,275.0108 L371.2119,274.5405 L371.3533,274.7854 L372.1056,276.2129 Z M373.3838,278.7451 L372.5748,279.1542 L372.0144,277.9837 L371.7507,277.4848 L372.5439,277.0443 L372.8234,277.5744 L373.3838,278.7451 Z M374.5723,281.3207 L373.7477,281.6985 L373.3441,280.7625 L372.9804,280.002 L373.7894,279.593 L374.1687,280.385 L374.5723,281.3207 Z" id="Fill-21" fill="#FEFEFE"></path>
            <path d="M334.381031,236.878435 C345.173937,241.399548 355.659296,249.029395 364.352249,259.428835 C370.165608,266.383689 374.616512,273.907792 377.68678,281.545603" id="Stroke-22" stroke="#FEFEFE" stroke-width="0.6562" stroke-linecap="round" stroke-linejoin="round"></path>
            <path d="M336.8716,234.3957 C337.1202,234.1743 337.3719,233.9566 337.6273,233.7429 L338.5879,234.1768 L338.2279,235.0082 L336.8716,234.3957 Z M341.1476,235.4048 L340.7542,236.2217 L339.3204,235.5017 L339.0851,235.3955 L339.4449,234.564 L339.7139,234.6851 L341.1476,235.4048 Z M343.6571,236.732 L343.2308,237.5322 L341.9393,236.817 L341.5946,236.6438 L341.9881,235.8269 L342.3657,236.0168 L343.6571,236.732 Z M346.1136,238.153 L345.6558,238.9351 L344.5362,238.2548 L344.0529,237.9875 L344.4792,237.1872 L344.994,237.4727 L346.1136,238.153 Z M348.5154,239.6633 L348.0273,240.4267 L347.1052,239.8155 L346.4592,239.4232 L346.917,238.6408 L347.5933,239.0519 L348.5154,239.6633 Z M350.8614,241.2589 L350.3435,242.0033 L349.6411,241.4976 L348.8105,240.946 L349.2989,240.1826 L350.1592,240.7529 L350.8614,241.2589 Z M353.1489,242.9365 L352.6027,243.6599 L352.1404,243.2987 L351.1057,242.5529 L351.6236,241.8083 L352.6866,242.5753 L353.1489,242.9365 Z M355.377,244.692 L354.8032,245.3941 L354.5963,245.2189 L353.3431,244.2387 L353.8894,243.5153 L355.17,244.5168 L355.377,244.692 Z M357.5293,246.5124 L356.9556,247.2145 L355.5204,246.0007 L356.0941,245.2986 L357.5293,246.5124 Z M359.6247,248.4232 L359.0243,249.1035 L357.6376,247.8353 L358.238,247.155 L359.6247,248.4232 Z M361.6557,250.4018 L361.0301,251.0589 L359.693,249.7388 L360.3186,249.082 L361.6557,250.4018 Z M363.6215,252.4453 L362.9716,253.0777 L361.6858,251.7077 L362.3357,251.0753 L363.6215,252.4453 Z M365.5205,254.5506 L364.8472,255.158 L363.8976,254.065 L363.6145,253.7634 L364.2642,253.1307 L364.5711,253.4575 L365.5205,254.5506 Z M366.7629,255.9804 L366.067,256.5617 L365.4635,255.8673 L366.1367,255.2601 L366.7629,255.9804 Z M367.3531,256.7143 L366.6572,257.2959 L366.067,256.5617 L366.7629,255.9804 L367.3531,256.7143 Z M369.1168,258.9343 L368.3996,259.4894 L368.1397,259.1399 L367.2456,258.0278 L367.9418,257.4464 L368.8569,258.5848 L369.1168,258.9343 Z M370.7972,261.1972 L370.08,261.7523 L368.9595,260.2434 L369.6766,259.6884 L370.7972,261.1972 Z M372.4016,263.5353 L371.664,264.0628 L370.6021,262.5128 L371.3397,261.9853 L372.4016,263.5353 Z M373.9289,265.9243 L373.1717,266.4238 L372.17,264.8341 L372.9271,264.3349 L373.9289,265.9243 Z M375.3765,268.3632 L374.6007,268.8335 L373.6607,267.2058 L374.4369,266.7356 L375.3765,268.3632 Z M376.7409,270.8495 L375.9477,271.29 L375.1951,269.8628 L375.0704,269.647 L375.8465,269.1768 L375.9883,269.4223 L376.7409,270.8495 Z M378.0184,273.3817 L377.2094,273.7907 L376.6496,272.62 L376.3857,272.1211 L377.1791,271.6806 L377.4583,272.211 L378.0184,273.3817 Z M379.2076,275.9572 L378.383,276.3348 L377.9793,275.3991 L377.6151,274.6383 L378.4241,274.2292 L378.8039,275.0212 L379.2076,275.9572 Z M380.3023,278.5742 L379.4638,278.92 L379.1843,278.1938 L378.7549,277.198 L379.5795,276.8201 L380.0231,277.848 L380.3023,278.5742 Z" id="Fill-23" fill="#FEFEFE"></path>
            <path d="M338.836,232.7819 C339.1129,232.5727 339.3933,232.368 339.6779,232.1679 L340.058,232.3394 L339.698,233.1711 L338.836,232.7819 Z M381.3216,277.9398 L381.2814,277.9871 L381.2712,277.9605 L381.3216,277.9398 Z M342.6174,233.5677 L342.2239,234.3843 L340.7899,233.6646 L340.5552,233.5583 L340.9149,232.7266 L341.1833,232.8477 L342.6174,233.5677 Z M345.1266,234.8951 L344.7003,235.6945 L343.4091,234.9793 L343.0641,234.8064 L343.4576,233.9897 L343.8354,234.18 L345.1266,234.8951 Z M347.5831,236.3161 L347.1253,237.0982 L346.0059,236.4179 L345.5229,236.1503 L345.9492,235.3509 L346.4634,235.6358 L347.5831,236.3161 Z M349.9852,237.827 L349.4968,238.5904 L348.5744,237.9787 L347.9289,237.5863 L348.3865,236.804 L349.0625,237.215 L349.9852,237.827 Z M352.3311,239.4223 L351.813,240.167 L351.1108,239.6607 L350.2803,239.1097 L350.7687,238.346 L351.6287,238.9161 L352.3311,239.4223 Z M354.6187,241.1002 L354.0722,241.8236 L353.6096,241.4619 L352.5752,240.7164 L353.0934,239.9717 L354.1558,240.7385 L354.6187,241.1002 Z M356.8467,242.8551 L356.2727,243.5572 L356.0661,243.3821 L354.8126,242.4018 L355.3588,241.6784 L356.6398,242.6799 L356.8467,242.8551 Z M358.9985,244.6758 L358.4248,245.3782 L356.9902,244.1639 L357.5639,243.4617 L358.9985,244.6758 Z M361.0945,246.5866 L360.4941,247.2664 L359.1071,245.9984 L359.7075,245.319 L361.0945,246.5866 Z M363.1252,248.5655 L362.4999,249.2223 L361.1628,247.9019 L361.7881,247.2451 L363.1252,248.5655 Z M365.091,250.6087 L364.4413,251.2414 L363.1555,249.8711 L363.8052,249.2387 L365.091,250.6087 Z M366.9902,252.714 L366.317,253.3215 L365.3671,252.2281 L365.0839,251.9265 L365.7339,251.2938 L366.0403,251.6207 L366.9902,252.714 Z M368.2321,254.1435 L367.5362,254.7249 L366.933,254.0304 L367.6062,253.4232 L368.2321,254.1435 Z M368.8228,254.878 L368.1266,255.4594 L367.5362,254.7249 L368.2321,254.1435 L368.8228,254.878 Z M370.586,257.0981 L369.8688,257.6528 L369.6089,257.303 L368.7154,256.1915 L369.4113,255.6099 L370.326,256.748 L370.586,257.0981 Z M372.2669,259.3607 L371.5498,259.9157 L370.4289,258.4068 L371.1461,257.8521 L372.2669,259.3607 Z M373.8713,261.699 L373.1338,262.2265 L372.0716,260.6765 L372.8092,260.149 L373.8713,261.699 Z M375.3986,264.088 L374.6415,264.5872 L373.6397,262.9978 L374.3969,262.4983 L375.3986,264.088 Z M376.8457,266.5267 L376.0699,266.9969 L375.1302,265.3696 L375.906,264.8993 L376.8457,266.5267 Z M378.2103,269.0129 L377.4172,269.4534 L376.6643,268.0259 L376.5402,267.8108 L377.316,267.3405 L377.4577,267.5854 L378.2103,269.0129 Z M379.4879,271.5451 L378.6792,271.9542 L378.1191,270.7832 L377.8554,270.2848 L378.6486,269.8443 L378.9281,270.3741 L379.4879,271.5451 Z M380.6768,274.1207 L379.8522,274.4985 L379.4485,273.5623 L379.0848,272.802 L379.8935,272.3927 L380.2731,273.1844 L380.6768,274.1207 Z M381.7721,276.7379 L380.9333,277.0835 L380.6535,276.3569 L380.2243,275.3614 L381.0489,274.9835 L381.4923,276.0111 L381.7721,276.7379 Z" id="Fill-24" fill="#FEFEFE"></path>
            <path d="M130.750104,179.094926 L140.546991,179.094926 C160.007765,179.094926 175.250379,176.458265 186.230453,171.160471 C197.212324,165.862263 202.703674,158.543182 202.703674,149.202536 C202.703674,139.864655 197.212324,132.521102 186.230453,127.174781 C175.250379,121.826801 160.007765,119.165393 140.546991,119.165393 L130.750104,119.165393 L130.750104,179.094926 Z M359.180407,173.483294 C368.72014,176.620023 376.947695,178.890447 383.859339,180.251844 C391.897208,181.853943 399.716911,182.642411 407.361445,182.642411 C415.090867,182.642411 421.284968,181.681539 425.941119,179.78468 C430.642066,177.886301 432.970004,175.447897 432.970004,172.46546 C432.970004,168.178449 424.667514,163.349064 408.018986,158.001499 C405.340018,157.138511 403.274212,156.47309 401.825438,155.980072 L389.219347,152.011601 C376.961797,148.118893 367.868904,143.70842 361.939009,138.804515 C358.164094,135.683824 355.601123,132.293811 354.235302,128.638902 L353.997365,129.983846 C345.91484,125.324515 337.74549,121.851549 329.442309,119.607809 C321.184062,117.341809 312.486578,116.208118 303.393546,116.208118 C287.57994,116.208118 274.66554,119.26383 264.650348,125.374701 C254.590638,131.486817 249.582903,139.346475 249.582903,148.908191 C249.582903,158.49341 254.546258,166.254631 264.517485,172.194757 C274.4453,178.134054 287.403941,181.114417 303.393546,181.114417 C312.838852,181.114417 322.23715,180.006856 331.638905,177.788001 C341.039139,175.570944 350.395822,172.269138 359.752921,167.832812 L359.180407,173.483294 Z M357.456367,110.455328 C360.290594,107.070845 364.492164,104.051633 370.065085,101.398381 C381.399783,96.0003527 396.026747,93.3154406 413.948881,93.3154406 C420.537976,93.3154406 427.7,93.7578566 435.42956,94.6223651 C443.159812,95.483832 451.726921,96.8385927 461.170152,98.663697 L461.170152,123.206725 C452.165051,120.027966 443.643428,117.589562 435.560902,115.837733 C427.479759,114.113831 420.627012,113.250844 414.959663,113.250844 C408.679015,113.250844 403.758243,114.015394 400.1567,115.518364 C396.553498,117.045944 394.753418,119.091011 394.753418,121.703754 C394.753418,123.526094 395.805677,125.226215 397.959966,126.829144 C400.11232,128.404974 403.318869,129.859693 407.622747,131.141179 L429.50008,137.943463 C447.773381,143.609983 460.073652,148.858419 466.398957,153.688634 C472.679605,158.49341 475.841497,164.186889 475.841497,170.790086 C475.841497,180.99137 469.647534,189.248373 457.261822,195.53068 C444.8309,201.815614 428.400814,204.944187 407.886122,204.944187 C400.947519,204.944187 393.392021,204.525274 385.220736,203.712749 C377.09466,202.899533 368.134215,201.616527 358.338987,199.892487 L357.297235,192.100712 L356.940676,195.630224 C348.945804,198.660773 340.24832,200.978065 330.760709,202.553896 C321.272268,204.154474 311.431139,204.944187 301.19626,204.944187 C290.216601,204.944187 279.717101,203.98207 269.613841,202.060602 C259.555236,200.14024 250.24238,197.28085 241.765136,193.533863 C235.141201,190.61848 229.379838,187.351238 224.471648,183.730754 C218.124775,187.502074 210.516326,190.820332 201.64865,193.682073 C193.082785,196.468049 183.770758,198.464451 173.667497,199.696165 C163.609308,200.928294 151.133453,201.543252 136.286111,201.543252 L86.7349655,201.543252 L86.7349655,96.8637551 L136.286111,96.8637551 C171.119043,96.8637551 198.398275,101.521566 218.121595,110.860138 C220.450224,111.963828 222.638663,113.118395 224.694653,114.315546 C227.013051,112.608096 229.526803,110.969913 232.232454,109.406249 C241.325485,104.207584 251.824155,100.241187 263.772567,97.4550718 C275.675769,94.6953637 288.239416,93.3154406 301.462262,93.3154406 C311.91517,93.3154406 321.930224,94.1290712 331.463321,95.7796977 C340.996003,97.406959 350.089311,99.895549 358.742553,103.19694 L357.456367,110.455328 Z" id="Fill-25" fill="#FFFFFF"></path>
            <path d="M130.750104,179.094926 L140.546991,179.094926 C160.007765,179.094926 175.250379,176.458265 186.230453,171.160471 C197.212324,165.862263 202.703674,158.543182 202.703674,149.202536 C202.703674,139.864655 197.212324,132.521102 186.230453,127.174781 C175.250379,121.826801 160.007765,119.165393 140.546991,119.165393 L130.750104,119.165393 L130.750104,179.094926 Z M359.180407,173.483294 C368.72014,176.620023 376.947695,178.890447 383.859339,180.251844 C391.897208,181.853943 399.716911,182.642411 407.361445,182.642411 C415.090867,182.642411 421.284968,181.681539 425.941119,179.78468 C430.642066,177.886301 432.970004,175.447897 432.970004,172.46546 C432.970004,168.178449 424.667514,163.349064 408.018986,158.001499 C405.340018,157.138511 403.274212,156.47309 401.825438,155.980072 L389.219347,152.011601 C376.961797,148.118893 367.868904,143.70842 361.939009,138.804515 C358.164094,135.683824 355.601123,132.293811 354.235302,128.638902 L353.997365,129.983846 C345.91484,125.324515 337.74549,121.851549 329.442309,119.607809 C321.184062,117.341809 312.486578,116.208118 303.393546,116.208118 C287.57994,116.208118 274.66554,119.26383 264.650348,125.374701 C254.590638,131.486817 249.582903,139.346475 249.582903,148.908191 C249.582903,158.49341 254.546258,166.254631 264.517485,172.194757 C274.4453,178.134054 287.403941,181.114417 303.393546,181.114417 C312.838852,181.114417 322.23715,180.006856 331.638905,177.788001 C341.039139,175.570944 350.395822,172.269138 359.752921,167.832812 L359.180407,173.483294 Z M357.456367,110.455328 C360.290594,107.070845 364.492164,104.051633 370.065085,101.398381 C381.399783,96.0003527 396.026747,93.3154406 413.948881,93.3154406 C420.537976,93.3154406 427.7,93.7578566 435.42956,94.6223651 C443.159812,95.483832 451.726921,96.8385927 461.170152,98.663697 L461.170152,123.206725 C452.165051,120.027966 443.643428,117.589562 435.560902,115.837733 C427.479759,114.113831 420.627012,113.250844 414.959663,113.250844 C408.679015,113.250844 403.758243,114.015394 400.1567,115.518364 C396.553498,117.045944 394.753418,119.091011 394.753418,121.703754 C394.753418,123.526094 395.805677,125.226215 397.959966,126.829144 C400.11232,128.404974 403.318869,129.859693 407.622747,131.141179 L429.50008,137.943463 C447.773381,143.609983 460.073652,148.858419 466.398957,153.688634 C472.679605,158.49341 475.841497,164.186889 475.841497,170.790086 C475.841497,180.99137 469.647534,189.248373 457.261822,195.53068 C444.8309,201.815614 428.400814,204.944187 407.886122,204.944187 C400.947519,204.944187 393.392021,204.525274 385.220736,203.712749 C377.09466,202.899533 368.134215,201.616527 358.338987,199.892487 L357.297235,192.100712 L356.940676,195.630224 C348.945804,198.660773 340.24832,200.978065 330.760709,202.553896 C321.272268,204.154474 311.431139,204.944187 301.19626,204.944187 C290.216601,204.944187 279.717101,203.98207 269.613841,202.060602 C259.555236,200.14024 250.24238,197.28085 241.765136,193.533863 C235.141201,190.61848 229.379838,187.351238 224.471648,183.730754 C218.124775,187.502074 210.516326,190.820332 201.64865,193.682073 C193.082785,196.468049 183.770758,198.464451 173.667497,199.696165 C163.609308,200.928294 151.133453,201.543252 136.286111,201.543252 L86.7349655,201.543252 L86.7349655,96.8637551 L136.286111,96.8637551 C171.119043,96.8637551 198.398275,101.521566 218.121595,110.860138 C220.450224,111.963828 222.638663,113.118395 224.694653,114.315546 C227.013051,112.608096 229.526803,110.969913 232.232454,109.406249 C241.325485,104.207584 251.824155,100.241187 263.772567,97.4550718 C275.675769,94.6953637 288.239416,93.3154406 301.462262,93.3154406 C311.91517,93.3154406 321.930224,94.1290712 331.463321,95.7796977 C340.996003,97.406959 350.089311,99.895549 358.742553,103.19694 L357.456367,110.455328 Z" id="Stroke-26" stroke="#CCCCCC" stroke-width="2.0503"></path>
        </g>
    </g>
</svg>